<svg width="1180" height="1180" viewBox="0 0 1180 1180" fill="none" xmlns="http://www.w3.org/2000/svg">
<path d="M558.363 211.689C633.089 210.718 706.71 241.553 760.799 295.844C815.306 350.54 844.738 421.962 843.659 497.12C843.659 553.785 828.363 605.73 798.189 651.55C768.271 697.29 728.183 732.09 679.045 754.98L664.517 761.752L908.498 1086.37C1071.59 981.412 1179.62 798.292 1179.62 589.935C1179.62 264.132 915.499 -0.000146607 589.697 -0.000146607C407.831 -0.000146607 245.226 82.3204 137.008 211.689H558.363Z" fill="white"/>
<path d="M254.461 577.084H397.602H480.678C502.961 577.084 522.06 569.274 537.437 553.897C553.219 538.116 561.218 519.016 561.218 497.124C561.218 452.706 525.082 416.57 480.678 416.57H25.6687C10.0355 467.49 1.20048 521.336 0 577.084H254.461Z" fill="#ED1C24"/>
<path d="M412.708 782.555L396.697 761.755H25.25C98.8165 1003.73 323.643 1179.86 589.691 1179.86C627.985 1179.86 665.443 1176.18 701.714 1169.19L412.708 782.555Z" fill="white"/>
</svg>
